<svg xmlns="http://www.w3.org/2000/svg" viewBox="0 0 24 24" fill="none"
     stroke="currentColor" stroke-width="2" stroke-linecap="round" stroke-linejoin="round">
  <circle cx="12" cy="12" r="3"/>
  <path d="M19.4 15a1.7 1.7 0 0 0 .3 1.9l.1.1-2.8 2.8-.1-.1A1.7 1.7 0 0 0 15 19.4a1.7 1.7 0 0 0-1 .6 1.7 1.7 0 0 0-.4 1.1V21H9.6v-.1A1.7 1.7 0 0 0 8 19.4a1.7 1.7 0 0 0-1.9.3l-.1.1L3.2 17l.1-.1A1.7 1.7 0 0 0 3.6 15a1.7 1.7 0 0 0-.6-1 1.7 1.7 0 0 0-1.1-.4H2V9.6h.1A1.7 1.7 0 0 0 3.6 8a1.7 1.7 0 0 0-.3-1.9L3.2 6 6 3.2l.1.1A1.7 1.7 0 0 0 8 3.6a1.7 1.7 0 0 0 1-.6 1.7 1.7 0 0 0 .4-1.1V2h4v.1A1.7 1.7 0 0 0 15 3.6a1.7 1.7 0 0 0 1.9-.3l.1-.1L19.8 6l-.1.1A1.7 1.7 0 0 0 19.4 8a1.7 1.7 0 0 0 .6 1 1.7 1.7 0 0 0 1.1.4h.1v4h-.1A1.7 1.7 0 0 0 19.4 15z"/>
</svg>
